<svg xmlns="http://www.w3.org/2000/svg" width="20" height="20" viewBox="0 0 20 20"><defs><clipPath id="a"><path data-name="長方形 1255" fill="#fff" d="M0 0h15.696v6.252H0z"/></clipPath></defs><g data-name="グループ 2402" transform="translate(-517.398 -613.566)"><circle data-name="楕円形 304" cx="10" cy="10" r="10" transform="translate(517.398 613.566)" fill="#2196e2"/><g data-name="グループ 2401"><path data-name="パス 3309" d="M519.551 620.441v6.252h1.033v-2.437h1.954v-1.272h-1.954v-1.271h2.113v-1.272z" fill="#fff"/><g data-name="グループ 2400"><g data-name="グループ 2399" clip-path="url(#a)" fill="#fff" transform="translate(519.551 620.441)"><path data-name="パス 3310" d="M3.887 0h1.815a2.446 2.446 0 01.679.092A1.428 1.428 0 016.944.4a1.491 1.491 0 01.379.585 2.539 2.539 0 01.143.914 2.288 2.288 0 01-.258 1.126 1.157 1.157 0 01-.755.587l1.192 2.64H6.41l-.98-2.5h-.507v2.5H3.887zm1.036 2.587h.609c.093 0 .191 0 .295-.013a.732.732 0 00.281-.079.531.531 0 00.209-.207.793.793 0 00.083-.4.834.834 0 00-.077-.378.562.562 0 00-.185-.216.687.687 0 00-.258-.1 1.627 1.627 0 00-.285-.026h-.672z"/><path data-name="パス 3311" d="M8.218 0h3.185v1.271H9.252v1.166h2.033v1.272H9.252V4.98h2.271v1.272h-3.3z"/><path data-name="パス 3312" d="M12.391 0h3.185v1.271h-2.152v1.166h2.033v1.272h-2.033V4.98h2.271v1.272h-3.3z"/></g></g></g></g></svg>