<svg xmlns="http://www.w3.org/2000/svg" width="14.497" height="16.774" viewBox="0 0 14.497 16.774"><defs><clipPath id="a"><path data-name="長方形 712" d="M0 0h14.497v16.774H0z"/></clipPath></defs><g data-name="グループ 1542" clip-path="url(#a)"><path data-name="パス 2734" d="M14.141 10.966a7.637 7.637 0 01-1.748-4.447A5.416 5.416 0 009.42 2.175a2.188 2.188 0 00-.057-.5 2.17 2.17 0 00-4.282.5 5.4 5.4 0 00-2.967 4.3 7.683 7.683 0 01-1.773 4.511 1.353 1.353 0 00-.212 1.476C.641 13.6 2.8 14.309 5.158 14.576a.439.439 0 00-.018.089 2.109 2.109 0 104.218 0 .52.52 0 00-.018-.089c2.356-.267 4.516-.981 5.029-2.114a1.363 1.363 0 00-.228-1.5m-5.783 3.7a1.109 1.109 0 11-2.218 0 18.762 18.762 0 002.218 0m-1.11-.962c-3.839 0-6.861-1.251-6.139-2.07a8.7 8.7 0 002-5.048 4.417 4.417 0 013.15-3.794 1.168 1.168 0 111.985 0 4.418 4.418 0 013.156 3.79 8.706 8.706 0 001.995 5.048c.719.818-2.3 2.07-6.142 2.07"/></g></svg>