<svg xmlns="http://www.w3.org/2000/svg" width="21.096" height="21.095" viewBox="0 0 21.096 21.095"><defs><clipPath id="a"><path data-name="長方形 846" fill="#fff" d="M0 0h21.096v21.096H0z"/></clipPath></defs><g data-name="グループ 1774"><g data-name="グループ 1773"><g data-name="グループ 1772" clip-path="url(#a)" fill="#fff"><path data-name="パス 2865" d="M10.548 1.9c2.816 0 3.15.011 4.262.062a5.836 5.836 0 011.959.363 3.268 3.268 0 011.213.789 3.268 3.268 0 01.789 1.213 5.836 5.836 0 01.363 1.959c.051 1.112.061 1.446.061 4.262s-.011 3.15-.061 4.262a5.836 5.836 0 01-.363 1.959 3.493 3.493 0 01-2 2 5.836 5.836 0 01-1.959.363c-1.112.051-1.446.062-4.262.062s-3.15-.011-4.262-.062a5.836 5.836 0 01-1.959-.363 3.269 3.269 0 01-1.213-.789 3.268 3.268 0 01-.789-1.213 5.837 5.837 0 01-.363-1.959c-.053-1.108-.063-1.444-.063-4.26s.011-3.15.061-4.262a5.837 5.837 0 01.363-1.959 3.269 3.269 0 01.789-1.213 3.269 3.269 0 011.213-.789 5.836 5.836 0 011.959-.363c1.115-.051 1.445-.062 4.262-.062m0-1.9C7.683 0 7.324.012 6.201.063a7.743 7.743 0 00-2.56.49A5.171 5.171 0 001.77 1.77 5.17 5.17 0 00.554 3.639 7.742 7.742 0 00.064 6.2C.012 7.324.001 7.683.001 10.548s.011 3.224.063 4.352a7.742 7.742 0 00.49 2.56 5.17 5.17 0 001.217 1.868 5.171 5.171 0 001.868 1.217 7.743 7.743 0 002.56.49c1.125.051 1.484.063 4.349.063s3.224-.012 4.349-.063a7.743 7.743 0 002.56-.49 5.394 5.394 0 003.085-3.085 7.742 7.742 0 00.49-2.56c.051-1.125.063-1.484.063-4.349s-.012-3.224-.063-4.349a7.742 7.742 0 00-.49-2.56 5.171 5.171 0 00-1.217-1.872A5.171 5.171 0 0017.457.554a7.743 7.743 0 00-2.556-.491C13.772.012 13.413 0 10.548 0"/><path data-name="パス 2866" d="M10.548 5.131a5.416 5.416 0 105.416 5.416 5.416 5.416 0 00-5.416-5.416m0 8.932a3.516 3.516 0 113.516-3.516 3.516 3.516 0 01-3.516 3.516"/><path data-name="パス 2867" d="M17.447 4.918a1.266 1.266 0 11-1.266-1.266 1.266 1.266 0 011.266 1.266"/></g></g></g></svg>