<svg data-name="グループ 1776" xmlns="http://www.w3.org/2000/svg" width="15.915" height="11.14" viewBox="0 0 15.915 11.14"><defs><clipPath id="a"><path data-name="長方形 847" d="M0 0h15.915v11.14H0z"/></clipPath></defs><g data-name="グループ 1775" clip-path="url(#a)"><path data-name="パス 2868" d="M15.582 1.74A1.993 1.993 0 0014.175.332 47.573 47.573 0 007.957 0 47.571 47.571 0 001.74.332 1.993 1.993 0 00.333 1.74 20.707 20.707 0 000 5.57 20.708 20.708 0 00.333 9.4a1.993 1.993 0 001.407 1.408 47.553 47.553 0 006.218.333 47.555 47.555 0 006.218-.333A1.993 1.993 0 0015.582 9.4a20.708 20.708 0 00.333-3.831 20.707 20.707 0 00-.333-3.831M6.366 7.957V3.183L10.5 5.57z"/></g></svg>