<svg xmlns="http://www.w3.org/2000/svg" width="13.805" height="13.805" viewBox="0 0 13.805 13.805"><defs><clipPath id="a"><path data-name="長方形 823" fill="none" d="M0 0h13.805v13.805H0z"/></clipPath></defs><g data-name="グループ 1733"><g data-name="グループ 1732" clip-path="url(#a)"><path data-name="パス 2849" d="M6.9 13.8a6.9 6.9 0 116.9-6.9 6.911 6.911 0 01-6.9 6.9M6.9 1a5.9 5.9 0 105.9 5.9A5.909 5.909 0 006.9 1"/><path data-name="パス 2850" d="M9.143 8.828a.5.5 0 01-.254-.069L6.475 7.333a.5.5 0 01-.245-.431v-4.3a.5.5 0 011 0v4.015l2.168 1.277a.5.5 0 01-.255.93"/></g></g></svg>