<svg data-name="グループ 2238" xmlns="http://www.w3.org/2000/svg" width="22.927" height="22.927" viewBox="0 0 22.927 22.927"><path data-name="パス 3234" d="M11.463 15.438a3.975 3.975 0 113.976-3.976 3.98 3.98 0 01-3.976 3.976m0-6.36a2.385 2.385 0 102.385 2.384 2.388 2.388 0 00-2.385-2.384" fill="#707070"/><path data-name="パス 3235" d="M12.654 1.591a.768.768 0 01.768.768v.83a.784.784 0 00.553.737 7.917 7.917 0 011.051.437.826.826 0 00.367.087.74.74 0 00.527-.216l.595-.595a.769.769 0 011.087 0l1.684 1.684a.769.769 0 010 1.087l-.595.594a.769.769 0 00-.128.9A7.808 7.808 0 0119 8.951a.784.784 0 00.738.552h.829a.769.769 0 01.769.769v2.382a.768.768 0 01-.769.768h-.829a.785.785 0 00-.738.553 7.808 7.808 0 01-.436 1.051.769.769 0 00.128.9l.595.594a.769.769 0 010 1.087l-1.687 1.68a.769.769 0 01-1.087 0l-.595-.595a.741.741 0 00-.527-.216.817.817 0 00-.367.088 7.808 7.808 0 01-1.049.436.785.785 0 00-.553.738v.829a.768.768 0 01-.768.769h-2.382a.769.769 0 01-.769-.769v-.829A.785.785 0 008.951 19a7.819 7.819 0 01-1.051-.436.813.813 0 00-.367-.088.743.743 0 00-.528.216l-.594.595a.769.769 0 01-1.087 0L3.64 17.6a.769.769 0 010-1.087l.595-.594a.77.77 0 00.127-.9 7.913 7.913 0 01-.436-1.051.784.784 0 00-.737-.553h-.83a.768.768 0 01-.768-.768v-2.375a.769.769 0 01.768-.772h.83a.783.783 0 00.737-.552A7.913 7.913 0 014.362 7.9a.77.77 0 00-.127-.9l-.595-.589a.769.769 0 010-1.087L5.324 3.64a.769.769 0 011.087 0l.594.595a.742.742 0 00.528.216.823.823 0 00.367-.088 7.927 7.927 0 011.051-.437.783.783 0 00.549-.737v-.83a.769.769 0 01.769-.768zm0-1.591h-2.382a2.362 2.362 0 00-2.36 2.359v.255l-.2.081-.18-.18a2.359 2.359 0 00-3.336 0L2.515 4.2a2.361 2.361 0 000 3.336l.18.18a5.209 5.209 0 00-.081.2h-.255A2.362 2.362 0 000 10.272v2.382a2.361 2.361 0 002.359 2.359h.255l.081.2-.18.181a2.361 2.361 0 000 3.336L4.2 20.411a2.359 2.359 0 003.336 0l.18-.181c.066.028.131.056.2.082v.254a2.362 2.362 0 002.36 2.36h2.382a2.362 2.362 0 002.359-2.36v-.254l.2-.082.181.181a2.359 2.359 0 003.336 0l1.684-1.684a2.362 2.362 0 000-3.336l-.181-.181c.028-.065.056-.131.082-.2h.254a2.362 2.362 0 002.36-2.359v-2.379a2.362 2.362 0 00-2.36-2.36h-.254l-.082-.2.181-.18a2.362 2.362 0 000-3.336l-1.691-1.681a2.359 2.359 0 00-3.336 0l-.181.18a4.626 4.626 0 00-.2-.081v-.255A2.361 2.361 0 0012.654 0" fill="#707070"/></svg>