<svg data-name="グループ 1774" xmlns="http://www.w3.org/2000/svg" width="14.451" height="14.451" viewBox="0 0 14.451 14.451"><defs><clipPath id="a"><path data-name="長方形 846" d="M0 0h14.451v14.451H0z"/></clipPath></defs><g data-name="グループ 1773"><g data-name="グループ 1772" clip-path="url(#a)"><path data-name="パス 2865" d="M7.226 1.3c1.929 0 2.158.007 2.92.042a4 4 0 011.342.249 2.239 2.239 0 01.831.54 2.239 2.239 0 01.541.831 4 4 0 01.249 1.342c.035.762.042.99.042 2.92s-.007 2.158-.042 2.92a4 4 0 01-.249 1.342 2.393 2.393 0 01-1.371 1.371 4 4 0 01-1.342.249c-.762.035-.99.042-2.92.042s-2.158-.007-2.92-.042a4 4 0 01-1.342-.249 2.239 2.239 0 01-.831-.54 2.239 2.239 0 01-.54-.831 4 4 0 01-.249-1.342c-.035-.762-.042-.99-.042-2.92s.007-2.158.042-2.92a4 4 0 01.249-1.342 2.239 2.239 0 01.54-.831 2.239 2.239 0 01.831-.54 4 4 0 011.336-.247c.762-.035.99-.042 2.92-.042m0-1.3C5.263 0 5.017.008 4.246.043a5.3 5.3 0 00-1.753.336 3.542 3.542 0 00-1.28.833 3.542 3.542 0 00-.833 1.28 5.3 5.3 0 00-.336 1.754C.008 5.017.001 5.263.001 7.225S.008 9.434.044 10.2a5.3 5.3 0 00.336 1.754 3.542 3.542 0 00.833 1.28 3.542 3.542 0 001.28.833 5.3 5.3 0 001.754.336c.771.035 1.017.043 2.979.043s2.208-.008 2.979-.043a5.3 5.3 0 001.754-.336 3.695 3.695 0 002.113-2.113 5.3 5.3 0 00.336-1.754c.035-.771.043-1.017.043-2.979s-.008-2.208-.043-2.979a5.3 5.3 0 00-.336-1.754 3.542 3.542 0 00-.833-1.28 3.542 3.542 0 00-1.28-.833 5.3 5.3 0 00-1.758-.332C9.434.008 9.188 0 7.226 0"/><path data-name="パス 2866" d="M7.225 3.515a3.71 3.71 0 103.71 3.71 3.71 3.71 0 00-3.71-3.71m0 6.119a2.408 2.408 0 112.408-2.408 2.408 2.408 0 01-2.408 2.408"/><path data-name="パス 2867" d="M11.949 3.368a.867.867 0 11-.867-.867.867.867 0 01.867.867"/></g></g></svg>