<svg xmlns="http://www.w3.org/2000/svg" width="31.983" height="26.342" viewBox="0 0 31.983 26.342"><defs><clipPath id="a"><path data-name="長方形 848" fill="#d3d3d3" d="M0 0h31.983v26.342H0z"/></clipPath></defs><g data-name="グループ 1778"><g data-name="グループ 1777" clip-path="url(#a)"><path data-name="パス 2873" d="M31.983 8.69a8.686 8.686 0 00-17.269-1.354L5.638 20.285l2.239 2.239-.348.349a3.24 3.24 0 01-4.582-4.583L4 17.235a1 1 0 00-1.414-1.414l-1.053 1.055a5.24 5.24 0 007.41 7.411l.348-.349 2.4 2.4 12.941-9.073a8.669 8.669 0 007.351-8.575M22.9 15.369l-6.29-6.294a6.727 6.727 0 01.182-1.975l8.085 8.084a6.7 6.7 0 01-1.973.182M11.921 23.74L10 21.818l-1.761-1.76 6.811-9.715 6.586 6.586zm14.944-9.393l-9.233-9.232a6.694 6.694 0 119.233 9.232" fill="#d3d3d3"/></g></g></svg>