<svg xmlns="http://www.w3.org/2000/svg" width="13.805" height="16.665" viewBox="0 0 13.805 16.665"><defs><clipPath id="a"><path data-name="長方形 824" fill="none" d="M0 0h13.805v16.665H0z"/></clipPath></defs><g data-name="グループ 1735"><g data-name="グループ 1734" clip-path="url(#a)"><path data-name="パス 2851" d="M6.9 16.666l-4.878-4.883a6.9 6.9 0 119.764 0zm0-15.547a5.783 5.783 0 00-4.091 9.873L6.9 15.084l4.1-4.092a5.783 5.783 0 00-4.1-9.873"/><path data-name="パス 2852" d="M6.903 9.376a2.323 2.323 0 01-1.647-.681 2.586 2.586 0 01-.749-1.864 2.357 2.357 0 01.739-1.7 2.431 2.431 0 013.317 0 2.359 2.359 0 01.74 1.7 2.582 2.582 0 01-.749 1.862 2.326 2.326 0 01-1.65.683M6.048 7.9a1.215 1.215 0 001.715 0 1.461 1.461 0 00.423-1.054 1.248 1.248 0 00-.386-.9 1.31 1.31 0 00-1.787 0 1.249 1.249 0 00-.386.9A1.464 1.464 0 006.048 7.9"/></g></g></svg>