<svg xmlns="http://www.w3.org/2000/svg" width="27.154" height="22.365" viewBox="0 0 27.154 22.365"><defs><clipPath id="a"><path data-name="長方形 848" fill="#707070" d="M0 0h27.154v22.365H0z"/></clipPath></defs><g data-name="グループ 1777" clip-path="url(#a)"><path data-name="パス 2873" d="M27.154 7.378a7.375 7.375 0 00-14.662-1.15L4.787 17.222l1.9 1.9-.3.3A2.751 2.751 0 012.5 15.529l.9-.9a.849.849 0 10-1.2-1.2l-.9.9a4.45 4.45 0 006.293 6.291l.3-.3 2.041 2.04 10.987-7.7a7.361 7.361 0 006.238-7.283m-7.708 5.671L14.1 7.7a5.711 5.711 0 01.155-1.674l6.864 6.863a5.691 5.691 0 01-1.675.155m-9.325 7.107l-1.63-1.627L7 17.03l5.783-8.248 5.592 5.592zm12.688-7.975L14.97 4.343a5.683 5.683 0 117.839 7.838" fill="#707070"/></g></svg>