<svg id="グループ_1776" data-name="グループ 1776" xmlns="http://www.w3.org/2000/svg" xmlns:xlink="http://www.w3.org/1999/xlink" width="15.915" height="11.14" viewBox="0 0 15.915 11.14">
  <defs>
    <clipPath id="clip-path">
      <rect id="長方形_847" data-name="長方形 847" width="15.915" height="11.14" transform="translate(0 0)"/>
    </clipPath>
  </defs>
  <g id="グループ_1775" data-name="グループ 1775" transform="translate(0 0)" clip-path="url(#clip-path)">
    <path id="パス_2868" data-name="パス 2868" d="M15.582,1.74A1.993,1.993,0,0,0,14.175.332,47.573,47.573,0,0,0,7.957,0,47.571,47.571,0,0,0,1.74.332,1.993,1.993,0,0,0,.333,1.74,20.707,20.707,0,0,0,0,5.57,20.708,20.708,0,0,0,.333,9.4,1.993,1.993,0,0,0,1.74,10.808a47.553,47.553,0,0,0,6.218.333,47.555,47.555,0,0,0,6.218-.333A1.993,1.993,0,0,0,15.582,9.4a20.708,20.708,0,0,0,.333-3.831,20.707,20.707,0,0,0-.333-3.831M6.366,7.957V3.183L10.5,5.57Z" transform="translate(0 0)"/>
  </g>
</svg>
