<svg id="グループ_1718" data-name="グループ 1718" xmlns="http://www.w3.org/2000/svg" xmlns:xlink="http://www.w3.org/1999/xlink" width="14.539" height="14.451" viewBox="0 0 14.539 14.451">
  <defs>
    <clipPath id="clip-path">
      <rect id="長方形_817" data-name="長方形 817" width="14.539" height="14.451" transform="translate(0 0)"/>
    </clipPath>
  </defs>
  <g id="グループ_1717" data-name="グループ 1717" transform="translate(0 0)" clip-path="url(#clip-path)">
    <path id="パス_2833" data-name="パス 2833" d="M14.539,7.272a7.27,7.27,0,1,0-8.406,7.181V9.373H4.288v-2.1H6.134V5.67A2.565,2.565,0,0,1,8.88,2.842a11.179,11.179,0,0,1,1.627.142V4.773H9.59A1.051,1.051,0,0,0,8.406,5.908V7.272h2.016l-.322,2.1H8.406v5.08a7.271,7.271,0,0,0,6.134-7.181" transform="translate(0 -0.002)"/>
  </g>
</svg>
