<svg id="グループ_1774" data-name="グループ 1774" xmlns="http://www.w3.org/2000/svg" xmlns:xlink="http://www.w3.org/1999/xlink" width="14.451" height="14.451" viewBox="0 0 14.451 14.451">
  <defs>
    <clipPath id="clip-path">
      <rect id="長方形_846" data-name="長方形 846" width="14.451" height="14.451"/>
    </clipPath>
  </defs>
  <g id="グループ_1773" data-name="グループ 1773" transform="translate(0)">
    <g id="グループ_1772" data-name="グループ 1772" clip-path="url(#clip-path)">
      <path id="パス_2865" data-name="パス 2865" d="M7.225,1.3c1.929,0,2.158.007,2.92.042a4,4,0,0,1,1.342.249,2.239,2.239,0,0,1,.831.54,2.239,2.239,0,0,1,.541.831,4,4,0,0,1,.249,1.342c.035.762.042.99.042,2.92s-.007,2.158-.042,2.92a4,4,0,0,1-.249,1.342,2.393,2.393,0,0,1-1.371,1.371,4,4,0,0,1-1.342.249c-.762.035-.99.042-2.92.042s-2.158-.007-2.92-.042a4,4,0,0,1-1.342-.249,2.239,2.239,0,0,1-.831-.54,2.239,2.239,0,0,1-.54-.831,4,4,0,0,1-.249-1.342c-.035-.762-.042-.99-.042-2.92s.007-2.158.042-2.92a4,4,0,0,1,.249-1.342,2.239,2.239,0,0,1,.54-.831,2.239,2.239,0,0,1,.831-.54A4,4,0,0,1,4.3,1.344c.762-.035.99-.042,2.92-.042m0-1.3C5.262,0,5.016.008,4.245.043A5.3,5.3,0,0,0,2.492.379a3.542,3.542,0,0,0-1.28.833,3.542,3.542,0,0,0-.833,1.28A5.3,5.3,0,0,0,.043,4.246C.007,5.017,0,5.263,0,7.225S.007,9.434.043,10.2a5.3,5.3,0,0,0,.336,1.754,3.542,3.542,0,0,0,.833,1.28,3.542,3.542,0,0,0,1.28.833,5.3,5.3,0,0,0,1.754.336c.771.035,1.017.043,2.979.043s2.208-.008,2.979-.043a5.3,5.3,0,0,0,1.754-.336,3.695,3.695,0,0,0,2.113-2.113,5.3,5.3,0,0,0,.336-1.754c.035-.771.043-1.017.043-2.979s-.008-2.208-.043-2.979a5.3,5.3,0,0,0-.336-1.754,3.542,3.542,0,0,0-.833-1.28,3.542,3.542,0,0,0-1.28-.833A5.3,5.3,0,0,0,10.2.043C9.433.008,9.187,0,7.225,0" transform="translate(0.001 0)"/>
      <path id="パス_2866" data-name="パス 2866" d="M126.265,122.556a3.71,3.71,0,1,0,3.71,3.71,3.71,3.71,0,0,0-3.71-3.71m0,6.119a2.408,2.408,0,1,1,2.408-2.408,2.408,2.408,0,0,1-2.408,2.408" transform="translate(-119.04 -119.041)"/>
      <path id="パス_2867" data-name="パス 2867" d="M357.9,88.082a.867.867,0,1,1-.867-.867.867.867,0,0,1,.867.867" transform="translate(-345.951 -84.714)"/>
    </g>
  </g>
</svg>
