<svg xmlns="http://www.w3.org/2000/svg" xmlns:xlink="http://www.w3.org/1999/xlink" width="27.154" height="22.365" viewBox="0 0 27.154 22.365">
  <defs>
    <clipPath id="clip-path">
      <rect id="長方形_848" data-name="長方形 848" width="27.154" height="22.365" fill="#707070"/>
    </clipPath>
  </defs>
  <g id="グループ_1777" data-name="グループ 1777" clip-path="url(#clip-path)">
    <path id="パス_2873" data-name="パス 2873" d="M27.154,7.378a7.375,7.375,0,0,0-14.662-1.15L4.787,17.222l1.9,1.9-.3.3A2.751,2.751,0,0,1,2.5,15.529l.9-.9a.849.849,0,1,0-1.2-1.2l-.9.9A4.449,4.449,0,0,0,7.593,20.62l.3-.3,2.041,2.04,10.987-7.7a7.361,7.361,0,0,0,6.238-7.283m-7.708,5.671L14.1,7.7a5.711,5.711,0,0,1,.155-1.674l6.864,6.863a5.691,5.691,0,0,1-1.675.155m-9.325,7.107L8.489,18.524h0L7,17.03l5.783-8.248,5.592,5.592Zm12.688-7.975L14.97,4.343a5.683,5.683,0,1,1,7.839,7.838" transform="translate(0 0)" fill="#707070"/>
  </g>
</svg>
