<svg xmlns="http://www.w3.org/2000/svg" width="14.848" height="13.088" viewBox="0 0 14.848 13.088">
  <path id="パス_3294" data-name="パス 3294" d="M53.153,0A3.975,3.975,0,0,0,49.7,2.005a3.973,3.973,0,0,0-7.424,1.968c0,4.039,6.835,8.82,7.126,9.022a.522.522,0,0,0,.6,0c.291-.2,7.126-4.983,7.126-9.022A3.978,3.978,0,0,0,53.153,0M49.7,11.922c-1.3-.953-6.379-4.885-6.379-7.949a2.928,2.928,0,1,1,5.857,0,.522.522,0,0,0,1.045,0,2.928,2.928,0,1,1,5.857,0c0,3.064-5.082,7-6.379,7.949" transform="translate(-42.279)"/>
</svg>
