<svg id="グループ_2238" data-name="グループ 2238" xmlns="http://www.w3.org/2000/svg" width="22.927" height="22.927" viewBox="0 0 22.927 22.927">
  <path id="パス_3234" data-name="パス 3234" d="M13.391,17.366a3.975,3.975,0,1,1,3.976-3.976,3.98,3.98,0,0,1-3.976,3.976m0-6.36a2.385,2.385,0,1,0,2.385,2.384,2.388,2.388,0,0,0-2.385-2.384" transform="translate(-1.928 -1.928)" fill="#707070"/>
  <path id="パス_3235" data-name="パス 3235" d="M12.654,1.591a.768.768,0,0,1,.768.768v.83a.784.784,0,0,0,.553.737,7.917,7.917,0,0,1,1.051.437.826.826,0,0,0,.367.087.74.74,0,0,0,.527-.216l.595-.595a.769.769,0,0,1,1.087,0l1.684,1.684a.769.769,0,0,1,0,1.087l-.595.594a.769.769,0,0,0-.128.9A7.808,7.808,0,0,1,19,8.951a.784.784,0,0,0,.738.552h.829a.769.769,0,0,1,.769.769v2.382a.768.768,0,0,1-.769.768h-.829a.785.785,0,0,0-.738.553,7.808,7.808,0,0,1-.436,1.051.769.769,0,0,0,.128.9l.595.594a.769.769,0,0,1,0,1.087L17.6,19.287a.769.769,0,0,1-1.087,0l-.595-.595a.741.741,0,0,0-.527-.216.817.817,0,0,0-.367.088A7.808,7.808,0,0,1,13.975,19a.785.785,0,0,0-.553.738v.829a.768.768,0,0,1-.768.769H10.272a.769.769,0,0,1-.769-.769v-.829A.785.785,0,0,0,8.951,19,7.819,7.819,0,0,1,7.9,18.564a.813.813,0,0,0-.367-.088.743.743,0,0,0-.528.216l-.594.595a.769.769,0,0,1-1.087,0L3.64,17.6a.769.769,0,0,1,0-1.087l.595-.594a.77.77,0,0,0,.127-.9,7.913,7.913,0,0,1-.436-1.051.784.784,0,0,0-.737-.553h-.83a.768.768,0,0,1-.768-.768V10.272A.769.769,0,0,1,2.359,9.5h.83a.783.783,0,0,0,.737-.552A7.913,7.913,0,0,1,4.362,7.9a.77.77,0,0,0-.127-.9L3.64,6.411a.769.769,0,0,1,0-1.087L5.324,3.64a.769.769,0,0,1,1.087,0l.594.595a.742.742,0,0,0,.528.216A.823.823,0,0,0,7.9,4.363a7.927,7.927,0,0,1,1.051-.437A.783.783,0,0,0,9.5,3.189v-.83a.769.769,0,0,1,.769-.768Zm0-1.591H10.272a2.362,2.362,0,0,0-2.36,2.359v.255l-.2.081-.18-.18a2.359,2.359,0,0,0-3.336,0L2.515,4.2a2.361,2.361,0,0,0,0,3.336l.18.18c-.028.066-.055.131-.081.2H2.359A2.362,2.362,0,0,0,0,10.272v2.382a2.361,2.361,0,0,0,2.359,2.359h.255c.026.066.053.132.081.2l-.18.181a2.361,2.361,0,0,0,0,3.336L4.2,20.411a2.359,2.359,0,0,0,3.336,0l.18-.181c.066.028.131.056.2.082v.254a2.362,2.362,0,0,0,2.36,2.36h2.382a2.362,2.362,0,0,0,2.359-2.36v-.254c.066-.026.132-.054.2-.082l.181.181a2.359,2.359,0,0,0,3.336,0l1.684-1.684a2.362,2.362,0,0,0,0-3.336l-.181-.181c.028-.065.056-.131.082-.2h.254a2.362,2.362,0,0,0,2.36-2.359V10.272a2.362,2.362,0,0,0-2.36-2.36h-.254c-.026-.066-.054-.131-.082-.2l.181-.18a2.362,2.362,0,0,0,0-3.336L18.727,2.515a2.359,2.359,0,0,0-3.336,0l-.181.18c-.065-.028-.131-.055-.2-.081V2.359A2.361,2.361,0,0,0,12.654,0" fill="#707070"/>
</svg>
