<svg xmlns="http://www.w3.org/2000/svg" xmlns:xlink="http://www.w3.org/1999/xlink" width="21.096" height="21.095" viewBox="0 0 21.096 21.095">
  <defs>
    <clipPath id="clip-path">
      <rect id="長方形_846" data-name="長方形 846" width="21.096" height="21.096" fill="#fff"/>
    </clipPath>
  </defs>
  <g id="グループ_1774" data-name="グループ 1774" transform="translate(-0.001)">
    <g id="グループ_1773" data-name="グループ 1773" transform="translate(0.001)">
      <g id="グループ_1772" data-name="グループ 1772" clip-path="url(#clip-path)">
        <path id="パス_2865" data-name="パス 2865" d="M10.547,1.9c2.816,0,3.15.011,4.262.062a5.836,5.836,0,0,1,1.959.363,3.268,3.268,0,0,1,1.213.789,3.268,3.268,0,0,1,.789,1.213,5.836,5.836,0,0,1,.363,1.959c.051,1.112.061,1.446.061,4.262s-.011,3.15-.061,4.262a5.836,5.836,0,0,1-.363,1.959,3.493,3.493,0,0,1-2,2,5.836,5.836,0,0,1-1.959.363c-1.112.051-1.446.062-4.262.062s-3.15-.011-4.262-.062a5.836,5.836,0,0,1-1.959-.363,3.269,3.269,0,0,1-1.213-.789,3.268,3.268,0,0,1-.789-1.213,5.837,5.837,0,0,1-.363-1.959C1.91,13.7,1.9,13.364,1.9,10.548s.011-3.15.061-4.262a5.837,5.837,0,0,1,.363-1.959,3.269,3.269,0,0,1,.789-1.213,3.269,3.269,0,0,1,1.213-.789,5.836,5.836,0,0,1,1.959-.363C7.4,1.911,7.73,1.9,10.547,1.9m0-1.9C7.682,0,7.323.012,6.2.063a7.743,7.743,0,0,0-2.56.49A5.171,5.171,0,0,0,1.769,1.77,5.17,5.17,0,0,0,.553,3.639,7.742,7.742,0,0,0,.063,6.2C.011,7.324,0,7.683,0,10.548S.011,13.772.063,14.9a7.742,7.742,0,0,0,.49,2.56,5.17,5.17,0,0,0,1.217,1.868,5.171,5.171,0,0,0,1.868,1.217,7.743,7.743,0,0,0,2.56.49c1.125.051,1.484.063,4.349.063s3.224-.012,4.349-.063a7.743,7.743,0,0,0,2.56-.49,5.394,5.394,0,0,0,3.085-3.085,7.742,7.742,0,0,0,.49-2.56c.051-1.125.063-1.484.063-4.349s-.012-3.224-.063-4.349a7.742,7.742,0,0,0-.49-2.56A5.171,5.171,0,0,0,19.324,1.77,5.171,5.171,0,0,0,17.456.554,7.743,7.743,0,0,0,14.9.063C13.771.012,13.412,0,10.547,0" transform="translate(0.001 0)" fill="#fff"/>
        <path id="パス_2866" data-name="パス 2866" d="M127.972,122.556a5.416,5.416,0,1,0,5.416,5.416,5.416,5.416,0,0,0-5.416-5.416m0,8.932a3.516,3.516,0,1,1,3.516-3.516,3.516,3.516,0,0,1-3.516,3.516" transform="translate(-117.424 -117.425)" fill="#fff"/>
        <path id="パス_2867" data-name="パス 2867" d="M358.7,88.481a1.266,1.266,0,1,1-1.266-1.266,1.266,1.266,0,0,1,1.266,1.266" transform="translate(-341.253 -83.563)" fill="#fff"/>
      </g>
    </g>
  </g>
</svg>
