<svg xmlns="http://www.w3.org/2000/svg" xmlns:xlink="http://www.w3.org/1999/xlink" width="31.983" height="26.342" viewBox="0 0 31.983 26.342">
  <defs>
    <clipPath id="clip-path">
      <rect id="長方形_848" data-name="長方形 848" width="31.983" height="26.342" transform="translate(0 0)" fill="#d3d3d3"/>
    </clipPath>
  </defs>
  <g id="グループ_1778" data-name="グループ 1778" transform="translate(0 0)">
    <g id="グループ_1777" data-name="グループ 1777" clip-path="url(#clip-path)">
      <path id="パス_2873" data-name="パス 2873" d="M31.983,8.69A8.686,8.686,0,0,0,14.714,7.336L5.638,20.285l2.239,2.239-.348.349A3.24,3.24,0,0,1,2.947,18.29L4,17.235a1,1,0,0,0-1.414-1.414L1.533,16.876a5.24,5.24,0,0,0,7.41,7.411l.348-.349,2.4,2.4,12.941-9.073A8.669,8.669,0,0,0,31.983,8.69M22.9,15.369,16.61,9.075A6.727,6.727,0,0,1,16.792,7.1l8.085,8.084a6.7,6.7,0,0,1-1.973.182M11.921,23.74,10,21.818h0L8.239,20.058l6.811-9.715,6.586,6.586Zm14.944-9.393L17.632,5.115a6.694,6.694,0,1,1,9.233,9.232" fill="#d3d3d3"/>
    </g>
  </g>
</svg>
