<svg xmlns="http://www.w3.org/2000/svg" xmlns:xlink="http://www.w3.org/1999/xlink" width="14.497" height="16.774" viewBox="0 0 14.497 16.774">
  <defs>
    <clipPath id="clip-path">
      <rect id="長方形_712" data-name="長方形 712" width="14.497" height="16.774" transform="translate(0 0)"/>
    </clipPath>
  </defs>
  <g id="グループ_1542" data-name="グループ 1542" transform="translate(0 0)">
    <g id="グループ_1542-2" data-name="グループ 1542" clip-path="url(#clip-path)">
      <path id="パス_2734" data-name="パス 2734" d="M14.141,10.966a7.637,7.637,0,0,1-1.748-4.447A5.416,5.416,0,0,0,9.42,2.175a2.188,2.188,0,0,0-.057-.5,2.17,2.17,0,0,0-4.282.5,5.4,5.4,0,0,0-2.967,4.3A7.683,7.683,0,0,1,.341,10.986a1.353,1.353,0,0,0-.212,1.476C.641,13.6,2.8,14.309,5.158,14.576a.439.439,0,0,0-.018.089,2.109,2.109,0,1,0,4.218,0,.52.52,0,0,0-.018-.089c2.356-.267,4.516-.981,5.029-2.114a1.363,1.363,0,0,0-.228-1.5m-5.783,3.7a1.109,1.109,0,1,1-2.218,0v0c.371.022.742.034,1.108.034s.738-.012,1.11-.034v0M7.248,13.7c-3.839,0-6.861-1.251-6.139-2.07a8.7,8.7,0,0,0,2-5.048,4.417,4.417,0,0,1,3.15-3.794,1.168,1.168,0,1,1,1.985,0A4.418,4.418,0,0,1,11.4,6.578a8.706,8.706,0,0,0,1.995,5.048c.719.818-2.3,2.07-6.142,2.07"/>
    </g>
  </g>
</svg>
