<svg xmlns="http://www.w3.org/2000/svg" xmlns:xlink="http://www.w3.org/1999/xlink" width="13.805" height="16.665" viewBox="0 0 13.805 16.665">
  <defs>
    <clipPath id="clip-path">
      <rect id="長方形_824" data-name="長方形 824" width="13.805" height="16.665" fill="none"/>
    </clipPath>
  </defs>
  <g id="グループ_1735" data-name="グループ 1735" transform="translate(0 0)">
    <g id="グループ_1734" data-name="グループ 1734" transform="translate(0 0)" clip-path="url(#clip-path)">
      <path id="パス_2851" data-name="パス 2851" d="M6.9,16.666,2.022,11.783a6.9,6.9,0,1,1,9.764,0Zm0-15.547a5.783,5.783,0,0,0-4.091,9.873L6.9,15.084,11,10.992A5.783,5.783,0,0,0,6.9,1.119" transform="translate(0 0)"/>
      <path id="パス_2852" data-name="パス 2852" d="M10.455,12.9a2.323,2.323,0,0,1-1.647-.681,2.586,2.586,0,0,1-.749-1.864,2.357,2.357,0,0,1,.739-1.7,2.431,2.431,0,0,1,3.317,0,2.359,2.359,0,0,1,.74,1.7,2.582,2.582,0,0,1-.749,1.862,2.326,2.326,0,0,1-1.65.683M9.6,11.424a1.215,1.215,0,0,0,1.715,0,1.461,1.461,0,0,0,.423-1.054,1.248,1.248,0,0,0-.386-.9,1.31,1.31,0,0,0-1.787,0,1.249,1.249,0,0,0-.386.9A1.464,1.464,0,0,0,9.6,11.424" transform="translate(-3.552 -3.524)"/>
    </g>
  </g>
</svg>
