<svg data-name="グループ 1530" xmlns="http://www.w3.org/2000/svg" width="251.039" height="35.804" viewBox="0 0 251.039 35.804"><path data-name="パス 2705" d="M17.736 1.238l-1.1 5.667H9.231l-1.293 6.674h4.841L0 30.13l7.759-.01 5.861-7.612-2.44 12.604h6.671l2.488-12.846.386.716 8.41-.086-5.171-9.317h6.473l1.293-6.674h-8.416l1.094-5.667z"/><path data-name="パス 2706" d="M20.852 34.971l24.525-.031 2.07-10.7h-6.672l-.78 4.033-7.968.012 8.321-13.869H33.1z"/><path data-name="パス 2707" d="M35.795.085l-9.934 15.02 7.39-.014 5.5-8.334h1.446l2.474 8.249 7.529-.073L45.6.085z"/><path data-name="パス 2708" d="M64.915 2.182l-5.034 26h-3.778l2.682-13.852h-6.674l-3.972 20.531h27.706l3.972-20.523h-6.672L70.46 28.19h-3.907l5.035-26.008z"/><path data-name="パス 2709" d="M169.71 1.322l-6.491 33.539h18.385l2.361-12.214h-6.671l-1.072 5.539h-5.04l5.2-26.864z"/><path data-name="パス 2710" d="M88.921 13.568h14.556l-2.83 14.608H86.093zm-5.384-6.672l-5.409 27.957h27.9l5.412-27.957z"/><path data-name="パス 2711" d="M121.506 24.43h-11.082l1.292-6.674h11.081z"/><path data-name="パス 2712" d="M159.626 7.012l-3.921 20.25-7.768 7.491h8.417l5.382-4.658 4.6-23.083z"/><path data-name="パス 2713" d="M137.319.296l-3.589 6.651h-9.471l-1.267 6.548h7.206l-11.47 21.26h7.388l11.469-21.258h6.457L141.2 28.188h-4.639l-1.293 6.672h11.312l5.4-27.913h-10.861l3.587-6.651z"/><path data-name="パス 2714" d="M241.349.314l-.758 3.925h-2.561l.76-3.925h-6.674l-.76 3.925h-2.561l.754-3.925h-6.67l-.761 3.925h-3.069l-2.628 13.579h6.674l1.337-6.906h18.64l-1.32 6.821h6.672l2.612-13.5h-3.78l.763-3.919z"/><path data-name="パス 2715" d="M226.139 12.635l-1.292 6.674h7.765l-.266 1.373h-16.445l-1.29 6.675h16.445l-.344 1.773h-5.92l-1.292 6.674h12.592l1.634-8.447h9.057l1.29-6.675h-9.052l1.556-8.049z"/><path data-name="パス 2716" d="M200.464 0l-1.308 6.747h-10.214l-1.29 6.674h10.215l-.6 3.083-13.876 18.357h8.376l7.372-10.1 3.458 10.1h8.377L204.2 16.5l.6-3.083h10.946l1.288-6.669h-10.946L207.393 0z"/></svg>