<svg xmlns="http://www.w3.org/2000/svg" width="251.038" height="35.804" viewBox="0 0 251.038 35.804">
  <g id="グループ_1788" data-name="グループ 1788" transform="translate(-995.961 -2855)">
    <g id="グループ_1787" data-name="グループ 1787">
      <path id="パス_2708" data-name="パス 2708" d="M52.07,1.6l-5.034,26H43.258l2.682-13.852H39.266L35.294,34.279H63l3.972-20.523H60.3L57.615,27.608H53.708L58.743,1.6Z" transform="translate(1008.805 2855.582)" fill="#fff"/>
      <path id="パス_2709" data-name="パス 2709" d="M126.158.969l-6.491,33.539h18.385l2.361-12.214h-6.671l-1.072,5.539h-5.04l5.2-26.864Z" transform="translate(1039.512 2855.353)" fill="#fff"/>
      <path id="パス_2710" data-name="パス 2710" d="M68.074,11.728H82.63L79.8,26.336H65.246ZM62.69,5.056,57.281,33.013h27.9L90.593,5.056Z" transform="translate(1016.809 2856.84)" fill="#fff"/>
      <path id="パス_2711" data-name="パス 2711" d="M92.042,19.692H80.96l1.292-6.674H93.333Z" transform="translate(1025.426 2859.737)" fill="#fff"/>
      <path id="パス_2712" data-name="パス 2712" d="M120.152,5.141l-3.921,20.25-7.768,7.491h8.417l5.382-4.658,4.6-23.083Z" transform="translate(1035.436 2856.871)" fill="#fff"/>
      <path id="パス_2713" data-name="パス 2713" d="M105.639.217l-3.589,6.651H92.579l-1.267,6.548h7.206L87.048,34.676h7.388l11.469-21.258h6.457l-2.842,14.691h-4.639l-1.293,6.672H114.9l5.4-27.913H109.439L113.026.217Z" transform="translate(1027.641 2855.079)" fill="#fff"/>
      <path id="パス_2714" data-name="パス 2714" d="M183.6.23l-.758,3.925h-2.561l.76-3.925h-6.674l-.76,3.925h-2.561L171.8.23H165.13l-.761,3.925H161.3l-2.628,13.579h6.674l1.337-6.906h18.64l-1.32,6.821h6.672l2.612-13.5h-3.78L190.27.23Z" transform="translate(1053.709 2855.084)" fill="#fff"/>
      <path id="パス_2715" data-name="パス 2715" d="M168.874,9.264l-1.292,6.674h7.765l-.266,1.373H158.636l-1.29,6.675h16.445l-.344,1.773h-5.92l-1.292,6.674h12.592l1.634-8.447h9.057l1.29-6.675h-9.052l1.556-8.049Z" transform="translate(1053.227 2858.371)" fill="#fff"/>
      <path id="パス_2716" data-name="パス 2716" d="M151.53,0l-1.308,6.747H140.008l-1.29,6.674h10.215l-.6,3.083L134.457,34.861h8.376l7.372-10.1,3.458,10.1h8.377L155.266,16.5l.6-3.083h10.946L168.1,6.748H157.154L158.459,0Z" transform="translate(1044.895 2855)" fill="#fff"/>
    </g>
    <path id="パス_2874" data-name="パス 2874" d="M17.736.908l-1.1,5.667H9.231L7.938,13.249h4.841L0,29.8l7.759-.01,5.861-7.612L11.18,34.782h6.671l2.488-12.846.386.716,8.41-.086-5.171-9.317h6.473L31.73,6.575H23.314L24.408.908Z" transform="translate(995.961 2855.33)" fill="#fff"/>
    <path id="パス_2875" data-name="パス 2875" d="M15.288,31.125l24.525-.031,2.07-10.7H35.211l-.78,4.033-7.968.012,8.321-13.869-7.248,0Z" transform="translate(1001.525 2858.846)" fill="#fff"/>
    <path id="パス_2876" data-name="パス 2876" d="M28.895.062l-9.934,15.02,7.39-.014,5.5-8.334h1.446l2.474,8.249L43.3,14.91,38.7.062Z" transform="translate(1002.861 2855.022)" fill="#fff"/>
    <path id="パス_2877" data-name="パス 2877" d="M17.736.908l-1.1,5.667H9.231L7.938,13.249h4.841L0,29.8l7.759-.01,5.861-7.612L11.18,34.782h6.671l2.488-12.846.386.716,8.41-.086-5.171-9.317h6.473L31.73,6.575H23.314L24.408.908Z" transform="translate(995.961 2855.33)" fill="#fff"/>
    <path id="パス_2878" data-name="パス 2878" d="M15.288,31.125l24.525-.031,2.07-10.7H35.211l-.78,4.033-7.968.012,8.321-13.869-7.248,0Z" transform="translate(1001.525 2858.846)" fill="#fff"/>
    <path id="パス_2879" data-name="パス 2879" d="M28.895.062l-9.934,15.02,7.39-.014,5.5-8.334h1.446l2.474,8.249L43.3,14.91,38.7.062Z" transform="translate(1002.861 2855.022)" fill="#fff"/>
  </g>
</svg>
